<?xml version="1.0" standalone="no"?>
<!DOCTYPE svg PUBLIC "-//W3C//DTD SVG 20010904//EN"
 "http://www.w3.org/TR/2001/REC-SVG-20010904/DTD/svg10.dtd">
<svg version="1.0" xmlns="http://www.w3.org/2000/svg"
 width="1200.000000pt" height="1200.000000pt" viewBox="0 0 1200.000000 1200.000000"
 preserveAspectRatio="xMidYMid meet">

<g transform="translate(0.000000,1200.000000) scale(0.100000,-0.100000)"
fill="#000000" stroke="none">
<path d="M8419 10543 c-63 -65 -186 -194 -274 -288 -88 -93 -203 -215 -255
-270 -52 -55 -167 -176 -255 -270 -88 -93 -241 -255 -340 -360 -99 -104 -293
-309 -430 -455 -137 -146 -326 -346 -420 -445 -93 -99 -204 -216 -245 -260
-185 -197 -225 -235 -240 -235 -15 0 -111 95 -270 265 -41 44 -118 125 -170
180 -52 55 -174 183 -270 285 -96 101 -258 272 -361 380 -102 107 -229 242
-284 300 -54 58 -140 148 -190 200 -50 52 -174 183 -275 290 -101 107 -221
233 -265 280 -168 176 -293 308 -384 408 -52 56 -100 102 -107 102 -10 0 -282
-277 -570 -580 -228 -241 -720 -758 -884 -930 -103 -107 -241 -253 -308 -324
l-122 -130 107 -110 c60 -61 160 -165 223 -231 63 -67 166 -175 229 -240 63
-66 158 -165 210 -220 94 -98 199 -208 436 -455 866 -903 1320 -1382 1327
-1400 5 -15 -3 -32 -34 -67 -34 -40 -554 -594 -908 -967 -79 -83 -138 -146
-341 -361 -41 -44 -194 -206 -339 -360 -146 -154 -299 -316 -341 -360 -330
-346 -600 -639 -597 -651 2 -7 102 -113 223 -236 121 -123 434 -441 695 -708
261 -267 586 -597 722 -735 l248 -250 203 205 c112 113 329 336 482 495 154
160 357 369 450 465 198 203 451 464 650 670 582 602 817 840 828 840 10 0 25
-15 241 -240 72 -74 178 -184 236 -245 58 -60 161 -168 230 -240 68 -71 181
-189 250 -260 69 -72 224 -234 345 -360 121 -127 278 -291 350 -365 71 -74
177 -184 235 -245 250 -260 382 -397 491 -510 63 -66 135 -142 160 -168 l45
-48 224 228 c124 126 374 381 556 568 182 187 506 520 721 740 329 337 389
403 379 416 -11 17 -193 210 -836 889 -1767 1868 -1753 1852 -1748 1876 3 15
313 344 632 674 110 113 256 264 325 335 69 72 187 193 261 270 75 77 250 259
390 405 140 146 323 335 406 420 82 85 233 242 333 347 l183 193 -27 32 c-15
18 -85 94 -154 168 -70 74 -271 288 -446 475 -176 187 -425 453 -555 590 -129
138 -331 352 -449 478 -117 125 -214 227 -215 227 -1 0 -54 -53 -117 -117z"/>
</g>
</svg>
