<?xml version="1.0" standalone="no"?>
<!DOCTYPE svg PUBLIC "-//W3C//DTD SVG 20010904//EN"
 "http://www.w3.org/TR/2001/REC-SVG-20010904/DTD/svg10.dtd">
<svg version="1.0" xmlns="http://www.w3.org/2000/svg"
 width="400.000000pt" height="400.000000pt" viewBox="0 0 400.000000 400.000000"
 preserveAspectRatio="xMidYMid meet">

<g transform="translate(0.000000,400.000000) scale(0.100000,-0.100000)"
fill="#000000" stroke="none">
<path d="M885 3568 c-27 -5 -87 -27 -133 -49 -154 -75 -283 -235 -317 -396
-12 -57 -15 -246 -15 -1119 0 -702 4 -1070 11 -1110 38 -210 228 -409 440
-459 96 -22 2162 -22 2258 0 204 48 388 232 436 436 22 96 22 2162 0 2258 -49
206 -238 393 -442 436 -57 12 -244 14 -1128 14 -615 -1 -1081 -5 -1110 -11z
m1333 -552 l37 -34 5 -359 5 -358 358 -5 359 -5 34 -37 34 -38 0 -180 0 -180
-34 -38 -34 -37 -359 -5 -358 -5 -5 -358 -5 -359 -37 -34 -38 -34 -180 0 -180
0 -38 34 -37 34 -5 359 -5 358 -358 5 -359 5 -34 37 -34 38 0 180 0 180 34 38
34 37 359 5 358 5 5 358 5 359 37 34 38 34 180 0 180 0 38 -34z"/>
</g>
</svg>
